<svg version="1.1" viewBox="0.0 0.0 960.0 720.0" fill="none" stroke="none" stroke-linecap="square" stroke-miterlimit="10" xmlns:xlink="http://www.w3.org/1999/xlink" xmlns="http://www.w3.org/2000/svg"><clipPath id="p.0"><path d="m0 0l960.0 0l0 720.0l-960.0 0l0 -720.0z" clip-rule="nonzero"/></clipPath><g clip-path="url(#p.0)"><path fill="#000000" fill-opacity="0.0" d="m0 0l960.0 0l0 720.0l-960.0 0z" fill-rule="evenodd"/><path fill="#000000" fill-opacity="0.0" d="m325.24463 195.65318l579.74805 -0.06298828l0 149.73228l-579.74805 0.06298828z" fill-rule="evenodd"/><path fill="#696978" d="m410.0796 239.17833l0.359375 4.7187195q4.484375 -5.5004883 12.140625 -5.5013275q8.171875 -8.8500977E-4 11.21875 6.4362793q4.453125 -6.437973 12.6875 -6.4388733q6.875 -7.4768066E-4 10.234375 3.998886q3.359375 3.9996338 3.359375 12.046509l0 27.000015l-11.328125 0.0012207031l0 -26.953125q0 -3.59375 -1.40625 -5.2498474q-1.40625 -1.6717224 -4.953125 -1.671341q-5.078125 5.493164E-4 -7.03125 4.844513l0.03125 29.031265l-11.28125 0.0012207031l0 -26.92189q0 -3.671875 -1.453125 -5.312332q-1.4375 -1.6404724 -4.921875 -1.640091q-4.796875 5.187988E-4 -6.953125 3.9851227l0 29.890625l-11.28125 0.0012207031l0 -42.26561l10.578125 -0.001159668zm83.16406 42.256607q-0.78125 -1.531189 -1.125 -3.796753q-4.109375 4.5785522 -10.671875 4.5792847q-6.203125 6.713867E-4 -10.296875 -3.5926514q-4.078125 -3.5932922 -4.078125 -9.062042q0 -6.71875 4.984375 -10.313049q4.984375 -3.594284 14.390625 -3.6421814l5.203125 -5.645752E-4l0 -2.421875q0 -2.921875 -1.515625 -4.6717224q-1.5 -1.7654572 -4.734375 -1.7651062q-2.859375 3.0517578E-4 -4.484375 1.3754883q-1.609375 1.3595428 -1.609375 3.7345428l-11.296875 0.0012359619q0 -3.671875 2.265625 -6.797119q2.265625 -3.1252441 6.40625 -4.891327q4.140625 -1.7816925 9.296875 -1.7822571q7.8125 -8.544922E-4 12.40625 3.9205322q4.59375 3.9213715 4.59375 11.030746l0 18.328125q0.03125 6.015625 1.671875 9.093567l0 0.671875l-11.40625 0.0012512207zm-9.328125 -7.858368q2.5 -2.746582E-4 4.609375 -1.1098938q2.109375 -1.1095886 3.125 -2.9847107l0 -7.265625l-4.21875 4.5776367E-4q-8.484375 9.1552734E-4 -9.03125 5.8603516l-0.03125 0.6562805q0 2.109375 1.484375 3.484192q1.484375 1.3592224 4.0625 1.3589478zm43.515625 -8.12973l7.8125 -26.282104l12.109375 -0.0013122559l-17.0 48.829956l-0.9375 2.234497q-3.78125 8.281647 -12.5 8.282593q-2.453125 2.746582E-4 -5.0 -0.7494507l0 -8.546875l1.71875 0.031066895q3.203125 -3.3569336E-4 4.78125 -0.9848938q1.59375 -0.9689331 2.484375 -3.2346497l1.328125 -3.4689026l-14.796875 -42.389008l12.140625 -0.0013122559l7.859375 26.280396zm61.875 7.649536q3.125 -3.6621094E-4 5.078125 -1.7193298q1.953125 -1.7189331 2.03125 -4.5627136l10.578125 -0.0011291504q-0.03125 4.296875 -2.34375 7.875244q-2.296875 3.5627441 -6.3125 5.5475464q-4.0 1.9692078 -8.84375 1.9697266q-9.0625 9.765625E-4 -14.296875 -5.7640686q-5.234375 -5.7650757 -5.234375 -15.921326l0 -0.734375q0 -9.76561 5.1875 -15.578674q5.203125 -5.8286896 14.265625 -5.8296814q7.9375 -8.544922E-4 12.71875 4.5142517q4.78125 4.499481 4.859375 11.999466l-10.578125 0.001159668q-0.078125 -3.28125 -2.03125 -5.3279114q-1.953125 -2.0466614 -5.15625 -2.0463104q-3.953125 4.272461E-4 -5.96875 2.8756409q-2.0 2.8595886 -2.0 9.312714l0 1.171875q0 6.515625 1.984375 9.374786q2.0 2.8435364 6.0625 2.8431091zm22.375 -13.205566q0 -6.28125 2.421875 -11.203384q2.421875 -4.9221497 6.96875 -7.610138q4.5625 -2.7036285 10.578125 -2.7042694q8.546875 -9.3078613E-4 13.953125 5.232849q5.421875 5.233795 6.046875 14.218109l0.078125 2.8905945q0 9.71875 -5.4375 15.609985q-5.421875 5.87558 -14.5625 5.876587q-9.140625 9.765625E-4 -14.59375 -5.8578186q-5.453125 -5.8587646 -5.453125 -15.93689l0 -0.515625zm11.296875 0.8269043q0 6.015625 2.265625 9.202881q2.265625 3.1716309 6.484375 3.171173q4.09375 -4.5776367E-4 6.390625 -3.141327q2.3125 -3.1408691 2.3125 -10.062744q0 -5.8906403 -2.3125 -9.124756q-2.296875 -3.2497559 -6.46875 -3.249298q-4.140625 4.4250488E-4 -6.40625 3.2194366q-2.265625 3.2189941 -2.265625 9.984634zm46.09375 -21.56752l0.34375 4.8749695q4.53125 -5.6567535 12.15625 -5.6575775q6.71875 -7.324219E-4 10.0 3.9520416q3.28125 3.937149 3.359375 11.780884l0 27.312515l-11.296875 0.0012207031l0 -27.031265q0 -3.59375 -1.5625 -5.218567q-1.5625 -1.6248322 -5.1875 -1.6244354q-4.765625 5.0354004E-4 -7.15625 4.063263l0 29.8125l-11.28125 0.0012207031l0 -42.26561l10.625 -0.001159668zm47.929688 -10.395828l0 10.390625l7.21875 -7.9345703E-4l0 8.28125l-7.21875 7.9345703E-4l0 21.09375q0 2.34375 0.890625 3.3592834q0.90625 1.0155334 3.4375 1.0152588q1.875 -2.1362305E-4 3.328125 -0.2816162l0 8.5625q-3.328125 1.0159912 -6.84375 1.0163574q-11.875 0.0012817383 -12.109375 -11.998688l0 -22.765625l-6.171875 6.713867E-4l0 -8.28125l6.171875 -6.713867E-4l0 -10.390625l11.296875 -0.0012207031zm38.0 52.65213q-0.78125 -1.531189 -1.125 -3.796753q-4.109375 4.5785522 -10.671875 4.5792847q-6.203125 6.713867E-4 -10.296875 -3.5926514q-4.078125 -3.5932922 -4.078125 -9.062042q0 -6.71875 4.984375 -10.313049q4.984375 -3.594284 14.390625 -3.6421814l5.203125 -5.645752E-4l0 -2.421875q0 -2.921875 -1.515625 -4.6717224q-1.5 -1.7654572 -4.734375 -1.7651062q-2.859375 3.0517578E-4 -4.484375 1.3754883q-1.609375 1.3595581 -1.609375 3.734558l-11.296875 0.0012207031q0 -3.671875 2.265625 -6.797119q2.265625 -3.1252441 6.40625 -4.891327q4.140625 -1.7816925 9.296875 -1.7822571q7.8125 -8.544922E-4 12.40625 3.9205322q4.59375 3.9213715 4.59375 11.030746l0 18.328125q0.03125 6.015625 1.671875 9.093567l0 0.671875l-11.40625 0.0012512207zm-9.328125 -7.858368q2.5 -2.746582E-4 4.609375 -1.1098938q2.109375 -1.1095886 3.125 -2.9847107l0 -7.265625l-4.21875 4.5776367E-4q-8.484375 9.460449E-4 -9.03125 5.8603516l-0.03125 0.6562805q0 2.109375 1.484375 3.484192q1.484375 1.3592224 4.0625 1.3589478zm39.640625 7.855072l-11.328125 0.0012207031l0 -42.265625l11.328125 -0.0012359619l0 42.26564zm-11.984375 -53.201828q0 -2.546875 1.6875 -4.187683q1.703125 -1.6408081 4.640625 -1.6411285q2.890625 -3.2043457E-4 4.609375 1.6401215q1.71875 1.6404419 1.71875 4.187317q0 2.578125 -1.75 4.218933q-1.734375 1.6408081 -4.59375 1.6411285q-2.84375 3.0517578E-4 -4.578125 -1.6401367q-1.734375 -1.6404266 -1.734375 -4.2185516zm31.679688 10.9340515l0.34375 4.8749695q4.53125 -5.6567535 12.15625 -5.6575775q6.71875 -7.324219E-4 10.0 3.9520416q3.28125 3.937149 3.359375 11.780884l0 27.312515l-11.296875 0.0012207031l0 -27.031265q0 -3.59375 -1.5625 -5.218567q-1.5625 -1.6248322 -5.1875 -1.6244354q-4.765625 5.0354004E-4 -7.15625 4.063278l0 29.812485l-11.28125 0.0012207031l0 -42.26561l10.625 -0.001159668z" fill-rule="nonzero"/><path fill="#000000" fill-opacity="0.0" d="m328.4567 240.22047l573.3229 -0.06298828l0 239.62206l-573.3229 0.06298828z" fill-rule="evenodd"/><path fill="#aaa4f4" d="m397.73853 335.8066l0 -29.609375l32.015625 -0.0035095215l0 29.609375l-32.015625 0.0035095215zm32.015625 16.40274l0 117.234375q0 23.140625 -3.015625 32.64096q-3.015625 9.515961 -11.625 14.876251q-8.59375 5.3603516 -21.9375 5.3618164q-4.78125 4.8828125E-4 -10.3125 -0.85827637q-5.515625 -0.85876465 -11.890625 -2.5611572l5.578125 -27.34439q2.28125 0.45288086 4.28125 0.73391724q1.984375 0.29666138 3.6875 0.29644775q4.90625 -5.187988E-4 8.03125 -2.11026q3.140625 -2.1097107 4.15625 -5.0785522q1.03125 -2.953247 1.03125 -17.765747l0 -115.421875l32.015625 -0.0035095215zm57.41977 36.915558l-29.046875 -5.246826q4.890625 -17.531769 16.84375 -25.970581q11.96875 -8.438812 35.5625 -8.441406q21.421906 -0.0023498535 31.890656 5.0746155q10.484375 5.0613403 14.75 12.873383q4.28125 7.7963867 4.28125 28.655762l-0.34375 37.359436q0 15.953125 1.53125 23.531067q1.546875 7.5779724 5.765625 16.233734l-31.671875 0.003479004q-1.25 -3.1873474 -3.078125 -9.452789q-0.796875 -2.8436584 -1.140625 -3.7654724q-8.203125 7.98526 -17.546875 11.970673q-9.3437805 3.985382 -19.93753 3.9865723q-18.6875 0.0020446777 -29.453125 -10.13739q-10.765625 -10.139465 -10.765625 -25.639465q0 -10.25 4.890625 -18.281769q4.90625 -8.031799 13.734375 -12.298401q8.84375 -4.2822266 25.46875 -7.471527q22.453156 -4.221222 31.109406 -7.862793l0 -3.1875q0 -9.234375 -4.5625 -13.155762q-4.5625 -3.9370117 -17.203156 -3.935608q-8.546875 9.460449E-4 -13.328125 3.3608398q-4.78125 3.3598938 -7.75 11.7977295zm42.84378 25.96405q-6.15625 2.0631714 -19.484406 4.908386q-13.328125 2.8452148 -17.4375 5.580017q-6.265625 4.453827 -6.265625 11.281952q0 6.71875 5.015625 11.624451q5.015625 4.8900757 12.765625 4.889221q8.6562805 -9.460449E-4 16.515656 -5.6893005q5.8125 -4.328766 7.625 -10.5946045q1.265625 -4.109497 1.265625 -15.609497l0 -6.390625zm173.04718 58.090363l-32.0 0.0035095215l0 -61.75q0 -19.59375 -2.0625 -25.343536q-2.046875 -5.765381 -6.671875 -8.952393q-4.609375 -3.1869812 -11.09375 -3.1862793q-8.3125 9.1552734E-4 -14.921875 4.564148q-6.609375 4.5476074 -9.0625 12.079102q-2.453125 7.5158997 -2.453125 27.79715l0 54.796875l-32.015625 0.003540039l0 -121.0l29.734375 -0.0032653809l0 17.78125q15.84375 -20.517395 39.875 -20.52002q10.59375 -0.001159668 19.359375 3.8259888q8.78125 3.811554 13.28125 9.73291q4.5 5.9213867 6.265625 13.452454q1.765625 7.515442 1.765625 21.531067l0 75.1875zm102.54181 -38.526917l31.90625 5.3558655q-6.15625 17.547577 -19.4375 26.720886q-13.265625 9.17334 -33.203125 9.175537q-31.5625 0.003479004 -46.703125 -20.619873q-11.96875 -16.514313 -11.96875 -41.686188q0 -30.078125 15.71875 -47.111084q15.71875 -17.048615 39.765625 -17.05127q27.0 -0.002960205 42.609375 17.83908q15.609375 17.826416 14.921875 54.623352l-80.203125 0.00881958q0.34375 14.2343445 7.75 22.155396q7.40625 7.9210815 18.453125 7.919861q7.515625 -8.239746E-4 12.640625 -4.095154q5.125 -4.1099243 7.75 -13.2352295zm1.828125 -32.343933q-0.34375 -13.9062195 -7.1875 -21.139832q-6.828125 -7.2336426 -16.625 -7.2325745q-10.484375 0.001159668 -17.3125 7.6425476q-6.84375 7.6257324 -6.734375 20.735107l47.859375 -0.0052490234z" fill-rule="nonzero"/><path fill="#000000" fill-opacity="0.0" d="m66.17323 472.02954l129.53587 -224.05957l129.53586 224.05957z" fill-rule="evenodd"/><path stroke="#696978" stroke-width="24.0" stroke-linejoin="round" stroke-linecap="butt" d="m66.17323 472.02954l129.53587 -224.05957l129.53586 224.05957z" fill-rule="evenodd"/><path fill="#000000" fill-opacity="0.0" d="m195.7091 323.3852l0 88.97638" fill-rule="evenodd"/><path stroke="#aaa4f4" stroke-width="24.0" stroke-linejoin="round" stroke-linecap="butt" d="m195.7091 323.3852l0 88.97638" fill-rule="evenodd"/><path fill="#000000" fill-opacity="0.0" d="m195.7091 420.30765l0 23.590546" fill-rule="evenodd"/><path stroke="#aaa4f4" stroke-width="24.0" stroke-linejoin="round" stroke-linecap="butt" d="m195.7091 420.30765l0 23.590546" fill-rule="evenodd"/></g></svg>