<svg version="1.1" viewBox="0.0 0.0 192.0 192.0" fill="none" stroke="none" stroke-linecap="square" stroke-miterlimit="10" xmlns:xlink="http://www.w3.org/1999/xlink" xmlns="http://www.w3.org/2000/svg"><clipPath id="p.0"><path d="m0 0l192.0 0l0 192.0l-192.0 0l0 -192.0z" clip-rule="nonzero"/></clipPath><g clip-path="url(#p.0)"><path fill="#000000" fill-opacity="0.0" d="m0 0l192.0 0l0 192.0l-192.0 0z" fill-rule="evenodd"/><path fill="#000000" d="m57.89719 67.32361l101.71654 0c2.89917E-4 0 5.645752E-4 1.1444092E-4 7.6293945E-4 3.1280518E-4c2.1362305E-4 2.0599365E-4 3.2043457E-4 4.8065186E-4 3.2043457E-4 7.7056885E-4l-0.001083374 28.455605l0 0c0 15.716202 -12.740494 28.456696 -28.456696 28.456696l-101.71653 0l0 0c-5.9890747E-4 0 -0.0010852814 -4.8828125E-4 -0.0010852814 -0.001083374l0.0010852814 -28.455612l0 0c0 -15.716194 12.740496 -28.456688 28.456694 -28.456688z" fill-rule="evenodd"/><path stroke="#000000" stroke-width="1.0" stroke-linejoin="round" stroke-linecap="butt" d="m57.89719 67.32361l101.71654 0c2.89917E-4 0 5.645752E-4 1.1444092E-4 7.6293945E-4 3.1280518E-4c2.1362305E-4 2.0599365E-4 3.2043457E-4 4.8065186E-4 3.2043457E-4 7.7056885E-4l-0.001083374 28.455605l0 0c0 15.716202 -12.740494 28.456696 -28.456696 28.456696l-101.71653 0l0 0c-5.9890747E-4 0 -0.0010852814 -4.8828125E-4 -0.0010852814 -0.001083374l0.0010852814 -28.455612l0 0c0 -15.716194 12.740496 -28.456688 28.456694 -28.456688z" fill-rule="evenodd"/><path fill="#000000" d="m129.68124 25.832022l10.677155 0l0 0c5.5591125 0 10.890533 2.2083454 14.821411 6.139227c3.9308777 3.9308815 6.139221 9.262299 6.139221 14.8214035l0 20.960629c0 2.4414062E-4 -1.9836426E-4 4.4250488E-4 -4.4250488E-4 4.4250488E-4l-52.597984 -4.4250488E-4l0 0c-2.3651123E-4 0 -4.348755E-4 -1.9836426E-4 -4.348755E-4 -4.348755E-4l4.348755E-4 -20.960194l0 0c0 -11.576237 9.384399 -20.96063 20.96064 -20.96063z" fill-rule="evenodd"/><path stroke="#000000" stroke-width="1.0" stroke-linejoin="round" stroke-linecap="butt" d="m129.68124 25.832022l10.677155 0l0 0c5.5591125 0 10.890533 2.2083454 14.821411 6.139227c3.9308777 3.9308815 6.139221 9.262299 6.139221 14.8214035l0 20.960629c0 2.4414062E-4 -1.9836426E-4 4.4250488E-4 -4.4250488E-4 4.4250488E-4l-52.597984 -4.4250488E-4l0 0c-2.3651123E-4 0 -4.348755E-4 -1.9836426E-4 -4.348755E-4 -4.348755E-4l4.348755E-4 -20.960194l0 0c0 -11.576237 9.384399 -20.96063 20.96064 -20.96063z" fill-rule="evenodd"/><path fill="#000000" d="m125.99427 121.37996l0 0c0 -6.696991 5.428993 -12.125984 12.125984 -12.125984l0 0l0 0c3.2160187 0 6.300308 1.2775574 8.574371 3.5516205c2.274063 2.274063 3.5516205 5.3583527 3.5516205 8.574364l0 32.661423c0 6.696991 -5.429001 12.125977 -12.125992 12.125977l0 0l0 0c-6.696991 0 -12.125984 -5.4289856 -12.125984 -12.125977z" fill-rule="evenodd"/><path stroke="#000000" stroke-width="1.0" stroke-linejoin="round" stroke-linecap="butt" d="m125.99427 121.37996l0 0c0 -6.696991 5.428993 -12.125984 12.125984 -12.125984l0 0l0 0c3.2160187 0 6.300308 1.2775574 8.574371 3.5516205c2.274063 2.274063 3.5516205 5.3583527 3.5516205 8.574364l0 32.661423c0 6.696991 -5.429001 12.125977 -12.125992 12.125977l0 0l0 0c-6.696991 0 -12.125984 -5.4289856 -12.125984 -12.125977z" fill-rule="evenodd"/><path fill="#000000" d="m29.440496 121.37996l0 0c0 -6.696991 5.4289875 -12.125984 12.125986 -12.125984l0 0l0 0c3.216011 0 6.3003006 1.2775574 8.574364 3.5516205c2.274063 2.274063 3.5516205 5.3583527 3.5516205 8.574364l0 32.661423c0 6.696991 -5.4289894 12.125977 -12.125984 12.125977l0 0l0 0c-6.6969986 0 -12.125986 -5.4289856 -12.125986 -12.125977z" fill-rule="evenodd"/><path stroke="#000000" stroke-width="1.0" stroke-linejoin="round" stroke-linecap="butt" d="m29.440496 121.37996l0 0c0 -6.696991 5.4289875 -12.125984 12.125986 -12.125984l0 0l0 0c3.216011 0 6.3003006 1.2775574 8.574364 3.5516205c2.274063 2.274063 3.5516205 5.3583527 3.5516205 8.574364l0 32.661423c0 6.696991 -5.4289894 12.125977 -12.125984 12.125977l0 0l0 0c-6.6969986 0 -12.125986 -5.4289856 -12.125986 -12.125977z" fill-rule="evenodd"/><path fill="#000000" d="m121.20203 35.580086l18.992126 0l0 5.228348l-18.992126 0z" fill-rule="evenodd"/><path fill="#000000" d="m176.23268 45.5142l-14.428314 0l0 0c-3.068756 0 -6.0118256 1.219059 -8.181763 3.389c-2.1699524 2.169941 -3.3890076 5.113014 -3.3890076 8.181774l0 10.900745c0 1.2442398 1.0086517 2.2528915 2.252884 2.2528915l14.428314 0c6.3903503 0 11.57077 -5.1804123 11.57077 -11.570778l0 -10.900745l0 0c0 -1.244236 -1.0086517 -2.2528877 -2.252884 -2.2528877z" fill-rule="evenodd"/><path fill="#000000" d="m49.55643 87.07615l0 0c-15.60313 0 -28.251968 -11.527786 -28.251968 -25.748032c0 -14.220245 12.648838 -25.748032 28.251968 -25.748032l0 0c-8.892513 6.078285 -14.125984 15.617558 -14.125984 25.748032c0 10.130478 5.233471 19.669746 14.125984 25.748032z" fill-rule="evenodd"/><path stroke="#000000" stroke-width="1.0" stroke-linejoin="round" stroke-linecap="butt" d="m49.55643 87.07615l0 0c-15.60313 0 -28.251968 -11.527786 -28.251968 -25.748032c0 -14.220245 12.648838 -25.748032 28.251968 -25.748032l0 0c-8.892513 6.078285 -14.125984 15.617558 -14.125984 25.748032c0 10.130478 5.233471 19.669746 14.125984 25.748032z" fill-rule="evenodd"/><path fill="#000000" fill-opacity="0.0" d="m135.07411 36.766563l0 8.944881l0 0c0 4.9401207 -3.4336548 8.944881 -7.6692886 8.944881c-4.235626 0 -7.6692886 -4.0047607 -7.6692886 -8.944881l0 -8.944881z" fill-rule="evenodd"/><path stroke="#ffffff" stroke-width="2.0" stroke-linejoin="round" stroke-linecap="butt" d="m135.07411 36.766563l0 8.944881l0 0c0 4.9401207 -3.4336548 8.944881 -7.6692886 8.944881c-4.235626 0 -7.6692886 -4.0047607 -7.6692886 -8.944881l0 -8.944881z" fill-rule="evenodd"/><path fill="#000000" d="m120.74803 33.30971l13.32283 0l0 8.629921l-13.32283 0z" fill-rule="evenodd"/><path fill="#ffffff" d="m146.79663 42.778694l0 0c0 -1.4437675 1.2832184 -2.614174 2.86615 -2.614174l0 0c1.5829163 0 2.8661346 1.1704063 2.8661346 2.614174l0 0c0 1.4437675 -1.2832184 2.614174 -2.8661346 2.614174l0 0c-1.5829315 0 -2.86615 -1.1704063 -2.86615 -2.614174z" fill-rule="evenodd"/><path stroke="#000000" stroke-width="1.0" stroke-linejoin="round" stroke-linecap="butt" d="m146.79663 42.778694l0 0c0 -1.4437675 1.2832184 -2.614174 2.86615 -2.614174l0 0c1.5829163 0 2.8661346 1.1704063 2.8661346 2.614174l0 0c0 1.4437675 -1.2832184 2.614174 -2.8661346 2.614174l0 0c-1.5829315 0 -2.86615 -1.1704063 -2.86615 -2.614174z" fill-rule="evenodd"/><path fill="#ffffff" d="m50.304493 81.67969l0 0c0 -1.4437714 1.2832184 -2.614174 2.8661423 -2.614174l0 0c1.5829277 0 2.8661423 1.1704025 2.8661423 2.614174l0 0c0 1.4437714 -1.2832146 2.614174 -2.8661423 2.614174l0 0c-1.5829239 0 -2.8661423 -1.1704025 -2.8661423 -2.614174z" fill-rule="evenodd"/><path stroke="#ffffff" stroke-width="1.0" stroke-linejoin="round" stroke-linecap="butt" d="m50.304493 81.67969l0 0c0 -1.4437714 1.2832184 -2.614174 2.8661423 -2.614174l0 0c1.5829277 0 2.8661423 1.1704025 2.8661423 2.614174l0 0c0 1.4437714 -1.2832146 2.614174 -2.8661423 2.614174l0 0c-1.5829239 0 -2.8661423 -1.1704025 -2.8661423 -2.614174z" fill-rule="evenodd"/><path fill="#ffffff" d="m63.502438 78.2701l0 0c0 -1.0089035 0.90247726 -1.8267746 2.015751 -1.8267746l0 0c1.113266 0 2.015747 0.8178711 2.015747 1.8267746l0 0c0 1.0088959 -0.9024811 1.826767 -2.015747 1.826767l0 0c-1.1132736 0 -2.015751 -0.8178711 -2.015751 -1.826767z" fill-rule="evenodd"/><path stroke="#ffffff" stroke-width="1.0" stroke-linejoin="round" stroke-linecap="butt" d="m63.502438 78.2701l0 0c0 -1.0089035 0.90247726 -1.8267746 2.015751 -1.8267746l0 0c1.113266 0 2.015747 0.8178711 2.015747 1.8267746l0 0c0 1.0088959 -0.9024811 1.826767 -2.015747 1.826767l0 0c-1.1132736 0 -2.015751 -0.8178711 -2.015751 -1.826767z" fill-rule="evenodd"/><path fill="#ffffff" d="m60.162502 87.70881l0 0c0 -0.77407074 0.69096375 -1.4015732 1.5433083 -1.4015732l0 0c0.8523445 0 1.5433044 0.62750244 1.5433044 1.4015732l0 0c0 0.77407074 -0.69095993 1.4015732 -1.5433044 1.4015732l0 0c-0.8523445 0 -1.5433083 -0.62750244 -1.5433083 -1.4015732z" fill-rule="evenodd"/><path stroke="#ffffff" stroke-width="1.0" stroke-linejoin="round" stroke-linecap="butt" d="m60.162502 87.70881l0 0c0 -0.77407074 0.69096375 -1.4015732 1.5433083 -1.4015732l0 0c0.8523445 0 1.5433044 0.62750244 1.5433044 1.4015732l0 0c0 0.77407074 -0.69095993 1.4015732 -1.5433044 1.4015732l0 0c-0.8523445 0 -1.5433083 -0.62750244 -1.5433083 -1.4015732z" fill-rule="evenodd"/><path fill="#ffffff" d="m175.48848 52.208313l-2.3621979 0l0 0c-0.51789856 0 -1.0146027 -0.20573425 -1.3808136 -0.571949c-0.36621094 -0.36621094 -0.5719452 -0.8629036 -0.5719452 -1.380806l0 -1.952755l4.3149567 0z" fill-rule="evenodd"/></g></svg>