<svg version="1.1" viewBox="0.0 0.0 192.0 192.0" fill="none" stroke="none" stroke-linecap="square" stroke-miterlimit="10" xmlns:xlink="http://www.w3.org/1999/xlink" xmlns="http://www.w3.org/2000/svg"><clipPath id="p.0"><path d="m0 0l192.0 0l0 192.0l-192.0 0l0 -192.0z" clip-rule="nonzero"/></clipPath><g clip-path="url(#p.0)"><path fill="#000000" fill-opacity="0.0" d="m0 0l192.0 0l0 192.0l-192.0 0z" fill-rule="evenodd"/><path fill="#000000" d="m50.527336 82.85638l0 0c4.9985313 -13.150642 18.894455 -18.97034 32.341064 -13.54464c13.446602 5.4257126 22.190987 20.380783 20.35147 34.806084c-1.839508 14.425308 -13.681107 23.758415 -27.559868 21.721657l0.4156952 -29.134636z" fill-rule="evenodd"/><path fill="#000000" fill-opacity="0.0" d="m50.527336 82.85638l0 0c4.9985313 -13.150642 18.894455 -18.97034 32.341064 -13.54464c13.446602 5.4257126 22.190987 20.380783 20.35147 34.806084c-1.839508 14.425308 -13.681107 23.758415 -27.559868 21.721657" fill-rule="evenodd"/><path fill="#000000" d="m73.54038 124.992905l0 0c-1.9558411 13.499237 -11.629776 23.379364 -24.386253 24.906021c-12.756477 1.5266571 -25.99672 -5.6111603 -33.376286 -17.993149c-7.379567 -12.382004 -7.395075 -27.485695 -0.03909111 -38.073715c7.3559837 -10.588028 20.584875 -14.503357 33.34768 -9.86985l-7.0212135 32.109436z" fill-rule="evenodd"/><path fill="#000000" fill-opacity="0.0" d="m73.54038 124.992905l0 0c-1.9558411 13.499237 -11.629776 23.379364 -24.386253 24.906021c-12.756477 1.5266571 -25.99672 -5.6111603 -33.376286 -17.993149c-7.379567 -12.382004 -7.395075 -27.485695 -0.03909111 -38.073715c7.3559837 -10.588028 20.584875 -14.503357 33.34768 -9.86985" fill-rule="evenodd"/><path fill="#000000" d="m48.911896 100.560745l0 0c0.5524254 -3.6915588 2.7410316 -6.914772 5.9518967 -8.765488c3.2108688 -1.8507233 7.098156 -2.1296234 10.571457 -0.7584686l-2.2977333 6.025757l0 0c-1.660492 -0.68037415 -3.5202408 -0.56282806 -5.0504684 0.3192215c-1.5302315 0.88204956 -2.5635567 2.4321136 -2.8061752 4.2094727z" fill-rule="evenodd"/><path fill="#000000" d="m58.761627 81.44182l0 0c-0.9946861 3.3972397 -3.443344 6.165024 -6.709736 7.584175c-3.266388 1.4191513 -7.028023 1.3495636 -10.307495 -0.19067383l2.7837677 -6.0279922l0 0c1.4976692 0.7264633 3.2175865 0.77254486 4.7064705 0.12610626c1.4888878 -0.6464386 2.5973701 -1.9205475 3.0333176 -3.4865417z" fill-rule="evenodd"/><path fill="#000000" d="m37.001728 118.41324l0 0c-6.8100643 -11.854553 -2.7206955 -26.985207 9.133858 -33.795273l0 0c5.6927567 -3.2703094 12.451477 -4.145233 18.789318 -2.4323044c6.337845 1.7129364 11.735649 5.8734055 15.005959 11.566162l0 0c6.8100586 11.854553 2.7206955 26.985214 -9.133858 33.795273l0 0c-11.854557 6.810066 -26.985214 2.7206955 -33.795277 -9.133858z" fill-rule="evenodd"/><path fill="#000000" d="m89.67016 75.60708l58.26995 -30.694794l7.3656006 12.85416l-55.871773 34.88001z" fill-rule="evenodd"/><path stroke="#000000" stroke-width="1.0" stroke-linejoin="round" stroke-linecap="butt" d="m89.67016 75.60708l58.26995 -30.694794l7.3656006 12.85416l-55.871773 34.88001z" fill-rule="evenodd"/><path fill="#000000" d="m173.76767 32.060417l5.685272 9.921658l-2.1159973 7.8063774l-16.69519 9.582443l-7.804245 -2.1154137l-5.6827545 -9.917294l2.116928 -7.8098106l16.695175 -9.582447z" fill-rule="evenodd"/><path fill="#ffffff" d="m57.12326 105.61301l0 0c-2.6961937 -4.7052917 -1.5469398 -10.437454 2.5669289 -12.803146l0 0c1.9755516 -1.1360474 4.3845253 -1.3279572 6.6969795 -0.5335083c2.3124619 0.7944412 4.338974 2.51017 5.633728 4.7697296l0 0c2.6961975 4.7052917 1.5469437 10.437454 -2.566925 12.803146l0 0c-4.1138687 2.3656921 -9.634518 0.46907043 -12.330711 -4.2362213z" fill-rule="evenodd"/><path fill="#ffffff" d="m47.143974 124.437325l-5.760208 1.608757l-8.290607 -14.461609l4.318531 -4.1235275z" fill-rule="evenodd"/><path fill="#ffffff" d="m153.56755 41.987545l0.47244263 -2.3779526l2.2992096 0.80314636l-0.47244263 2.3779564z" fill-rule="evenodd"/><path fill="#ffffff" d="m158.9776 38.581955l0.47244263 -2.3779526l2.2992096 0.8031502l-0.47244263 2.3779526z" fill-rule="evenodd"/><path fill="#ffffff" d="m164.29105 35.530304l0.47242737 -2.3779526l2.2992249 0.8031502l-0.47244263 2.3779526z" fill-rule="evenodd"/><path fill="#ffffff" d="m160.5403 54.128628l0.47244263 -2.3779526l2.2992096 0.8031502l-0.47244263 2.3779526z" fill-rule="evenodd"/><path fill="#ffffff" d="m165.95035 50.72304l0.47242737 -2.3779526l2.2992249 0.8031502l-0.47244263 2.3779526z" fill-rule="evenodd"/><path fill="#ffffff" d="m171.26378 47.67139l0.47244263 -2.3779526l2.2992096 0.8031502l-0.47242737 2.3779526z" fill-rule="evenodd"/><path fill="#ffffff" d="m59.437733 81.93263l0 0c-0.6813774 1.9491043 -1.8564568 3.6835098 -3.4149284 5.0403976l-2.1506233 -2.4026413l0 0c1.1513367 -1.0066605 2.0175323 -2.294136 2.5169907 -3.7411423z" fill-rule="evenodd"/><path fill="#ffffff" d="m16.818209 124.95214l0 0c-4.5804787 -11.134712 -2.0612288 -24.454353 5.94685 -31.441872l1.5022736 2.5694962l0 0c-6.805399 6.2376785 -8.998918 17.818497 -5.216547 27.5411z" fill-rule="evenodd"/><path fill="#000000" fill-opacity="0.0" d="m133.66318 60.290546l17.007874 -9.763779" fill-rule="evenodd"/><path stroke="#000000" stroke-width="1.0" stroke-linejoin="round" stroke-linecap="butt" d="m133.66318 60.290546l17.007874 -9.763779" fill-rule="evenodd"/><path fill="#000000" fill-opacity="0.0" d="m134.89902 62.442436l17.007874 -9.763779" fill-rule="evenodd"/><path stroke="#000000" stroke-width="1.0" stroke-linejoin="round" stroke-linecap="butt" d="m134.89902 62.442436l17.007874 -9.763779" fill-rule="evenodd"/><path fill="#000000" fill-opacity="0.0" d="m136.48749 64.33228l17.007874 -9.763779" fill-rule="evenodd"/><path stroke="#000000" stroke-width="1.0" stroke-linejoin="round" stroke-linecap="butt" d="m136.48749 64.33228l17.007874 -9.763779" fill-rule="evenodd"/><path fill="#000000" fill-opacity="0.0" d="m137.3338 66.68193l17.007874 -9.763779" fill-rule="evenodd"/><path stroke="#000000" stroke-width="1.0" stroke-linejoin="round" stroke-linecap="butt" d="m137.3338 66.68193l17.007874 -9.763779" fill-rule="evenodd"/><path fill="#000000" fill-opacity="0.0" d="m131.19159 55.98698l17.007874 -9.763779" fill-rule="evenodd"/><path stroke="#000000" stroke-width="1.0" stroke-linejoin="round" stroke-linecap="butt" d="m131.19159 55.98698l17.007874 -9.763779" fill-rule="evenodd"/><path fill="#000000" fill-opacity="0.0" d="m132.42725 58.13854l17.007874 -9.763779" fill-rule="evenodd"/><path stroke="#000000" stroke-width="1.0" stroke-linejoin="round" stroke-linecap="butt" d="m132.42725 58.13854l17.007874 -9.763779" fill-rule="evenodd"/><path fill="#ffffff" d="m98.71611 83.25143l53.74846 -29.760818l1.2589874 2.198803l-52.771225 31.467525z" fill-rule="evenodd"/><path fill="#000000" d="m65.310486 129.30254l0 0c0.5074463 -3.4820328 2.5187683 -6.541008 5.5179825 -8.392189c2.9992142 -1.8511887 6.6944656 -2.3144531 10.137802 -1.2709427l-1.8301926 6.352928l0 0c-1.5776901 -0.4996643 -3.2720108 -0.2991867 -4.642372 0.54927826c-1.370369 0.8484726 -2.2813568 2.2610931 -2.4960709 3.8705292z" fill-rule="evenodd"/></g></svg>