<svg version="1.1" viewBox="0.0 0.0 192.0 192.0" fill="none" stroke="none" stroke-linecap="square" stroke-miterlimit="10" xmlns:xlink="http://www.w3.org/1999/xlink" xmlns="http://www.w3.org/2000/svg"><clipPath id="p.0"><path d="m0 0l192.0 0l0 192.0l-192.0 0l0 -192.0z" clip-rule="nonzero"/></clipPath><g clip-path="url(#p.0)"><path fill="#000000" fill-opacity="0.0" d="m0 0l192.0 0l0 192.0l-192.0 0z" fill-rule="evenodd"/><path fill="#000000" d="m46.79724 103.78876l92.91339 -57.41732l20.251968 32.72441l-92.91339 57.41732z" fill-rule="evenodd"/><path stroke="#000000" stroke-width="1.0" stroke-linejoin="round" stroke-linecap="butt" d="m46.79724 103.78876l92.91339 -57.41732l20.251968 32.72441l-92.91339 57.41732z" fill-rule="evenodd"/><path fill="#ffffff" d="m66.13923 135.20825l-41.322838 4.7716675l22.740156 -34.850403z" fill-rule="evenodd"/><path stroke="#000000" stroke-width="4.0" stroke-linejoin="round" stroke-linecap="butt" d="m66.13923 135.20825l-41.322838 4.7716675l22.740156 -34.850403z" fill-rule="evenodd"/><path fill="#000000" d="m39.64358 138.4297l-16.15748 2.0l9.03937 -13.496063z" fill-rule="evenodd"/><path stroke="#000000" stroke-width="1.0" stroke-linejoin="round" stroke-linecap="butt" d="m39.64358 138.4297l-16.15748 2.0l9.03937 -13.496063z" fill-rule="evenodd"/><path fill="#ffffff" d="m161.63544 43.046494l11.095337 17.978218l0 0c0.9928894 1.6088066 1.3061066 3.5462952 0.8707428 5.386238c-0.4353485 1.8399429 -1.5836182 3.4316254 -3.1921844 4.4248962l-11.226227 6.932045c-1.373291E-4 8.392334E-5 -3.2043457E-4 3.8146973E-5 -3.9672852E-4 -9.918213E-5l-18.582275 -30.110142l0 0c-9.1552734E-5 -1.373291E-4 -4.5776367E-5 -3.2043457E-4 9.1552734E-5 -4.043579E-4l11.226135 -6.931637l0 0c3.3496704 -2.0683746 7.741211 -1.0292778 9.808777 2.3208847z" fill-rule="evenodd"/><path stroke="#000000" stroke-width="4.0" stroke-linejoin="round" stroke-linecap="butt" d="m161.63544 43.046494l11.095337 17.978218l0 0c0.9928894 1.6088066 1.3061066 3.5462952 0.8707428 5.386238c-0.4353485 1.8399429 -1.5836182 3.4316254 -3.1921844 4.4248962l-11.226227 6.932045c-1.373291E-4 8.392334E-5 -3.2043457E-4 3.8146973E-5 -3.9672852E-4 -9.918213E-5l-18.582275 -30.110142l0 0c-9.1552734E-5 -1.373291E-4 -4.5776367E-5 -3.2043457E-4 9.1552734E-5 -4.043579E-4l11.226135 -6.931637l0 0c3.3496704 -2.0683746 7.741211 -1.0292778 9.808777 2.3208847z" fill-rule="evenodd"/><path fill="#000000" d="m153.1799 72.7643l17.952744 -11.118114l3.1496124 5.1338615l-17.952759 11.118111z" fill-rule="evenodd"/><path fill="#ffffff" d="m61.666454 122.20696l88.34645 -54.614174l3.1496124 5.1338577l-88.34646 54.614174z" fill-rule="evenodd"/></g></svg>