<svg version="1.1" viewBox="0.0 0.0 960.0 540.0" fill="none" stroke="none" stroke-linecap="square" stroke-miterlimit="10" xmlns:xlink="http://www.w3.org/1999/xlink" xmlns="http://www.w3.org/2000/svg"><clipPath id="p.0"><path d="m0 0l960.0 0l0 540.0l-960.0 0l0 -540.0z" clip-rule="nonzero"/></clipPath><g clip-path="url(#p.0)"><path fill="#ffffff" d="m0 0l960.0 0l0 540.0l-960.0 0z" fill-rule="evenodd"/><path fill="#ffffff" d="m612.2572 102.18915l0 0c0 -4.6850967 3.7980347 -8.4831085 8.483154 -8.4831085l58.970764 0c2.249878 0 4.407593 0.89375305 5.998474 2.484642c1.5908813 1.590889 2.4846191 3.7486038 2.4846191 5.9984665l0 33.93141c0 4.6851044 -3.7980347 8.4831085 -8.483093 8.4831085l-58.970764 0c-4.6851196 0 -8.483154 -3.7980042 -8.483154 -8.4831085z" fill-rule="evenodd"/><path stroke="#000000" stroke-width="12.0" stroke-linejoin="round" stroke-linecap="butt" d="m612.2572 102.18915l0 0c0 -4.6850967 3.7980347 -8.4831085 8.483154 -8.4831085l58.970764 0c2.249878 0 4.407593 0.89375305 5.998474 2.484642c1.5908813 1.590889 2.4846191 3.7486038 2.4846191 5.9984665l0 33.93141c0 4.6851044 -3.7980347 8.4831085 -8.483093 8.4831085l-58.970764 0c-4.6851196 0 -8.483154 -3.7980042 -8.483154 -8.4831085z" fill-rule="evenodd"/><path fill="#ffffff" d="m615.2441 322.61435l0 0c0 -4.685089 3.7980347 -8.483124 8.483154 -8.483124l58.970764 0c2.249878 0 4.407593 0.8937683 5.998474 2.4846497c1.5908813 1.5908813 2.4846191 3.7485962 2.4846191 5.998474l0 33.931427c0 4.685089 -3.7980347 8.483093 -8.483093 8.483093l-58.970764 0c-4.6851196 0 -8.483154 -3.7980042 -8.483154 -8.483093z" fill-rule="evenodd"/><path stroke="#000000" stroke-width="12.0" stroke-linejoin="round" stroke-linecap="butt" d="m615.2441 322.61435l0 0c0 -4.685089 3.7980347 -8.483124 8.483154 -8.483124l58.970764 0c2.249878 0 4.407593 0.8937683 5.998474 2.4846497c1.5908813 1.5908813 2.4846191 3.7485962 2.4846191 5.998474l0 33.931427c0 4.685089 -3.7980347 8.483093 -8.483093 8.483093l-58.970764 0c-4.6851196 0 -8.483154 -3.7980042 -8.483154 -8.483093z" fill-rule="evenodd"/><path fill="#ffffff" d="m269.62466 322.61435l0 0c0 -4.685089 3.7980347 -8.483124 8.483124 -8.483124l58.970795 0c2.2498474 0 4.4075623 0.8937683 5.9984436 2.4846497c1.5909119 1.5908813 2.4846497 3.7485962 2.4846497 5.998474l0 33.931427c0 4.685089 -3.7980042 8.483093 -8.483093 8.483093l-58.970795 0c-4.685089 0 -8.483124 -3.7980042 -8.483124 -8.483093z" fill-rule="evenodd"/><path stroke="#000000" stroke-width="12.0" stroke-linejoin="round" stroke-linecap="butt" d="m269.62466 322.61435l0 0c0 -4.685089 3.7980347 -8.483124 8.483124 -8.483124l58.970795 0c2.2498474 0 4.4075623 0.8937683 5.9984436 2.4846497c1.5909119 1.5908813 2.4846497 3.7485962 2.4846497 5.998474l0 33.931427c0 4.685089 -3.7980042 8.483093 -8.483093 8.483093l-58.970795 0c-4.685089 0 -8.483124 -3.7980042 -8.483124 -8.483093z" fill-rule="evenodd"/><path fill="#ffffff" d="m269.62466 102.18915l0 0c0 -4.6850967 3.7980347 -8.4831085 8.483124 -8.4831085l58.970795 0c2.2498474 0 4.4075623 0.89375305 5.9984436 2.484642c1.5909119 1.590889 2.4846497 3.7486038 2.4846497 5.9984665l0 33.93141c0 4.6851044 -3.7980042 8.4831085 -8.483093 8.4831085l-58.970795 0c-4.685089 0 -8.483124 -3.7980042 -8.483124 -8.4831085z" fill-rule="evenodd"/><path stroke="#000000" stroke-width="12.0" stroke-linejoin="round" stroke-linecap="butt" d="m269.62466 102.18915l0 0c0 -4.6850967 3.7980347 -8.4831085 8.483124 -8.4831085l58.970795 0c2.2498474 0 4.4075623 0.89375305 5.9984436 2.484642c1.5909119 1.590889 2.4846497 3.7486038 2.4846497 5.9984665l0 33.93141c0 4.6851044 -3.7980042 8.4831085 -8.483093 8.4831085l-58.970795 0c-4.685089 0 -8.483124 -3.7980042 -8.483124 -8.4831085z" fill-rule="evenodd"/><path fill="#000000" d="m220.50204 117.72179l519.75586 0l0 0c68.08942 0 123.286804 49.98532 123.286804 111.645355c0 61.66002 -55.197388 111.64534 -123.286804 111.64534l-519.75586 0l0 0c-68.08942 0 -123.2868 -49.98532 -123.2868 -111.64534c0 -61.660034 55.19738 -111.645355 123.2868 -111.645355z" fill-rule="evenodd"/><path stroke="#000000" stroke-width="1.0" stroke-linejoin="round" stroke-linecap="butt" d="m220.50204 117.72179l519.75586 0l0 0c68.08942 0 123.286804 49.98532 123.286804 111.645355c0 61.66002 -55.197388 111.64534 -123.286804 111.64534l-519.75586 0l0 0c-68.08942 0 -123.2868 -49.98532 -123.2868 -111.64534c0 -61.660034 55.19738 -111.645355 123.2868 -111.645355z" fill-rule="evenodd"/><path fill="#ffffff" d="m269.62466 198.58267l0 0c0 -4.1921387 3.567627 -7.5905457 7.968506 -7.5905457l0 0c2.1133728 0 4.1401978 0.79971313 5.6345825 2.2232208c1.4943848 1.4235077 2.3339233 3.354187 2.3339233 5.367325l0 0c0 4.192154 -3.567627 7.590561 -7.968506 7.590561l0 0c-4.400879 0 -7.968506 -3.398407 -7.968506 -7.590561z" fill-rule="evenodd"/><path stroke="#ffffff" stroke-width="1.0" stroke-linejoin="round" stroke-linecap="butt" d="m269.62466 198.58267l0 0c0 -4.1921387 3.567627 -7.5905457 7.968506 -7.5905457l0 0c2.1133728 0 4.1401978 0.79971313 5.6345825 2.2232208c1.4943848 1.4235077 2.3339233 3.354187 2.3339233 5.367325l0 0c0 4.192154 -3.567627 7.590561 -7.968506 7.590561l0 0c-4.400879 0 -7.968506 -3.398407 -7.968506 -7.590561z" fill-rule="evenodd"/><path fill="#ffffff" d="m326.6378 198.58267l0 0c0 -4.1921387 3.567627 -7.5905457 7.968506 -7.5905457l0 0c2.1133728 0 4.1401978 0.79971313 5.6345825 2.2232208c1.4943848 1.4235077 2.3339233 3.354187 2.3339233 5.367325l0 0c0 4.192154 -3.567627 7.590561 -7.968506 7.590561l0 0c-4.400879 0 -7.968506 -3.398407 -7.968506 -7.590561z" fill-rule="evenodd"/><path stroke="#ffffff" stroke-width="1.0" stroke-linejoin="round" stroke-linecap="butt" d="m326.6378 198.58267l0 0c0 -4.1921387 3.567627 -7.5905457 7.968506 -7.5905457l0 0c2.1133728 0 4.1401978 0.79971313 5.6345825 2.2232208c1.4943848 1.4235077 2.3339233 3.354187 2.3339233 5.367325l0 0c0 4.192154 -3.567627 7.590561 -7.968506 7.590561l0 0c-4.400879 0 -7.968506 -3.398407 -7.968506 -7.590561z" fill-rule="evenodd"/><path fill="#ffffff" d="m269.62466 260.15222l0 0c0 -4.1921387 3.567627 -7.5905457 7.968506 -7.5905457l0 0c2.1133728 0 4.1401978 0.79971313 5.6345825 2.2232208c1.4943848 1.4235077 2.3339233 3.3542023 2.3339233 5.367325l0 0c0 4.192169 -3.567627 7.5905457 -7.968506 7.5905457l0 0c-4.400879 0 -7.968506 -3.3983765 -7.968506 -7.5905457z" fill-rule="evenodd"/><path stroke="#ffffff" stroke-width="1.0" stroke-linejoin="round" stroke-linecap="butt" d="m269.62466 260.15222l0 0c0 -4.1921387 3.567627 -7.5905457 7.968506 -7.5905457l0 0c2.1133728 0 4.1401978 0.79971313 5.6345825 2.2232208c1.4943848 1.4235077 2.3339233 3.3542023 2.3339233 5.367325l0 0c0 4.192169 -3.567627 7.5905457 -7.968506 7.5905457l0 0c-4.400879 0 -7.968506 -3.3983765 -7.968506 -7.5905457z" fill-rule="evenodd"/><path fill="#ffffff" d="m326.6378 260.15222l0 0c0 -4.1921387 3.567627 -7.5905457 7.968506 -7.5905457l0 0c2.1133728 0 4.1401978 0.79971313 5.6345825 2.2232208c1.4943848 1.4235077 2.3339233 3.3542023 2.3339233 5.367325l0 0c0 4.192169 -3.567627 7.5905457 -7.968506 7.5905457l0 0c-4.400879 0 -7.968506 -3.3983765 -7.968506 -7.5905457z" fill-rule="evenodd"/><path stroke="#ffffff" stroke-width="1.0" stroke-linejoin="round" stroke-linecap="butt" d="m326.6378 260.15222l0 0c0 -4.1921387 3.567627 -7.5905457 7.968506 -7.5905457l0 0c2.1133728 0 4.1401978 0.79971313 5.6345825 2.2232208c1.4943848 1.4235077 2.3339233 3.3542023 2.3339233 5.367325l0 0c0 4.192169 -3.567627 7.5905457 -7.968506 7.5905457l0 0c-4.400879 0 -7.968506 -3.3983765 -7.968506 -7.5905457z" fill-rule="evenodd"/><path fill="#ffffff" d="m615.2441 198.58267l0 0c0 -4.1921387 3.567627 -7.5905457 7.968506 -7.5905457l0 0c2.1134033 0 4.1401978 0.79971313 5.6345825 2.2232208c1.4943848 1.4235077 2.3339233 3.354187 2.3339233 5.367325l0 0c0 4.192154 -3.567627 7.590561 -7.968506 7.590561l0 0c-4.400879 0 -7.968506 -3.398407 -7.968506 -7.590561z" fill-rule="evenodd"/><path stroke="#ffffff" stroke-width="1.0" stroke-linejoin="round" stroke-linecap="butt" d="m615.2441 198.58267l0 0c0 -4.1921387 3.567627 -7.5905457 7.968506 -7.5905457l0 0c2.1134033 0 4.1401978 0.79971313 5.6345825 2.2232208c1.4943848 1.4235077 2.3339233 3.354187 2.3339233 5.367325l0 0c0 4.192154 -3.567627 7.590561 -7.968506 7.590561l0 0c-4.400879 0 -7.968506 -3.398407 -7.968506 -7.590561z" fill-rule="evenodd"/><path fill="#ffffff" d="m672.2572 198.58267l0 0c0 -4.1921387 3.567627 -7.5905457 7.968506 -7.5905457l0 0c2.1134033 0 4.1401978 0.79971313 5.6345825 2.2232208c1.4943848 1.4235077 2.3339233 3.354187 2.3339233 5.367325l0 0c0 4.192154 -3.567627 7.590561 -7.968506 7.590561l0 0c-4.400879 0 -7.968506 -3.398407 -7.968506 -7.590561z" fill-rule="evenodd"/><path stroke="#ffffff" stroke-width="1.0" stroke-linejoin="round" stroke-linecap="butt" d="m672.2572 198.58267l0 0c0 -4.1921387 3.567627 -7.5905457 7.968506 -7.5905457l0 0c2.1134033 0 4.1401978 0.79971313 5.6345825 2.2232208c1.4943848 1.4235077 2.3339233 3.354187 2.3339233 5.367325l0 0c0 4.192154 -3.567627 7.590561 -7.968506 7.590561l0 0c-4.400879 0 -7.968506 -3.398407 -7.968506 -7.590561z" fill-rule="evenodd"/><path fill="#ffffff" d="m615.2441 260.15222l0 0c0 -4.1921387 3.567627 -7.5905457 7.968506 -7.5905457l0 0c2.1134033 0 4.1401978 0.79971313 5.6345825 2.2232208c1.4943848 1.4235077 2.3339233 3.3542023 2.3339233 5.367325l0 0c0 4.192169 -3.567627 7.5905457 -7.968506 7.5905457l0 0c-4.400879 0 -7.968506 -3.3983765 -7.968506 -7.5905457z" fill-rule="evenodd"/><path stroke="#ffffff" stroke-width="1.0" stroke-linejoin="round" stroke-linecap="butt" d="m615.2441 260.15222l0 0c0 -4.1921387 3.567627 -7.5905457 7.968506 -7.5905457l0 0c2.1134033 0 4.1401978 0.79971313 5.6345825 2.2232208c1.4943848 1.4235077 2.3339233 3.3542023 2.3339233 5.367325l0 0c0 4.192169 -3.567627 7.5905457 -7.968506 7.5905457l0 0c-4.400879 0 -7.968506 -3.3983765 -7.968506 -7.5905457z" fill-rule="evenodd"/><path fill="#ffffff" d="m672.2572 260.15222l0 0c0 -4.1921387 3.567627 -7.5905457 7.968506 -7.5905457l0 0c2.1134033 0 4.1401978 0.79971313 5.6345825 2.2232208c1.4943848 1.4235077 2.3339233 3.3542023 2.3339233 5.367325l0 0c0 4.192169 -3.567627 7.5905457 -7.968506 7.5905457l0 0c-4.400879 0 -7.968506 -3.3983765 -7.968506 -7.5905457z" fill-rule="evenodd"/><path stroke="#ffffff" stroke-width="1.0" stroke-linejoin="round" stroke-linecap="butt" d="m672.2572 260.15222l0 0c0 -4.1921387 3.567627 -7.5905457 7.968506 -7.5905457l0 0c2.1134033 0 4.1401978 0.79971313 5.6345825 2.2232208c1.4943848 1.4235077 2.3339233 3.3542023 2.3339233 5.367325l0 0c0 4.192169 -3.567627 7.5905457 -7.968506 7.5905457l0 0c-4.400879 0 -7.968506 -3.3983765 -7.968506 -7.5905457z" fill-rule="evenodd"/><path fill="#ffffff" d="m285.13046 320.50684l390.49747 0l0 0c51.15625 0 92.62659 1.9709473 92.62659 4.4022217c0 2.431244 -41.470337 4.402191 -92.62659 4.402191l-390.49747 0l0 0c-51.15622 0 -92.626526 -1.9709473 -92.626526 -4.402191c0 -2.4312744 41.470306 -4.4022217 92.626526 -4.4022217z" fill-rule="evenodd"/><path stroke="#000000" stroke-width="1.0" stroke-linejoin="round" stroke-linecap="butt" d="m285.13046 320.50684l390.49747 0l0 0c51.15625 0 92.62659 1.9709473 92.62659 4.4022217c0 2.431244 -41.470337 4.402191 -92.62659 4.402191l-390.49747 0l0 0c-51.15622 0 -92.626526 -1.9709473 -92.626526 -4.402191c0 -2.4312744 41.470306 -4.4022217 92.626526 -4.4022217z" fill-rule="evenodd"/></g></svg>