<svg version="1.1" viewBox="0.0 0.0 192.0 192.0" fill="none" stroke="none" stroke-linecap="square" stroke-miterlimit="10" xmlns:xlink="http://www.w3.org/1999/xlink" xmlns="http://www.w3.org/2000/svg"><clipPath id="p.0"><path d="m0 0l192.0 0l0 192.0l-192.0 0l0 -192.0z" clip-rule="nonzero"/></clipPath><g clip-path="url(#p.0)"><path fill="#000000" fill-opacity="0.0" d="m0 0l192.0 0l0 192.0l-192.0 0z" fill-rule="evenodd"/><path fill="#000000" d="m1.7956226 96.006714c0 -17.881851 42.17689 -32.377953 94.20472 -32.377953l0 0c52.02784 0 94.204735 14.496101 94.204735 32.377953l0 0c0 17.881851 -42.176895 32.37796 -94.204735 32.37796l0 0c-52.02783 0 -94.20472 -14.496109 -94.20472 -32.37796zm21.81497 0l0 0c0 5.8337784 32.409996 10.562981 72.389755 10.562981l0 0c39.97976 0 72.38976 -4.7292023 72.38976 -10.562981c0 -5.8337708 -32.410004 -10.562981 -72.38976 -10.562981l0 0c-19.198952 0 -37.611572 1.1128845 -51.187283 3.0938263c-13.575712 1.9809418 -21.202469 4.667679 -21.202469 7.4691544z" fill-rule="evenodd"/><path stroke="#000000" stroke-width="4.0" stroke-linejoin="round" stroke-linecap="butt" d="m1.7956226 96.006714c0 -17.881851 42.17689 -32.377953 94.20472 -32.377953l0 0c52.02784 0 94.204735 14.496101 94.204735 32.377953l0 0c0 17.881851 -42.176895 32.37796 -94.204735 32.37796l0 0c-52.02783 0 -94.20472 -14.496109 -94.20472 -32.37796zm21.81497 0l0 0c0 5.8337784 32.409996 10.562981 72.389755 10.562981l0 0c39.97976 0 72.38976 -4.7292023 72.38976 -10.562981c0 -5.8337708 -32.410004 -10.562981 -72.38976 -10.562981l0 0c-19.198952 0 -37.611572 1.1128845 -51.187283 3.0938263c-13.575712 1.9809418 -21.202469 4.667679 -21.202469 7.4691544z" fill-rule="evenodd"/><path fill="#000000" d="m47.518105 95.99877l0 0c0 -26.770592 21.70185 -48.472443 48.472443 -48.472443l0 0c12.85569 0 25.184845 5.106903 34.275185 14.19725c9.090347 9.090347 14.19725 21.419502 14.19725 34.275192l0 0c0 26.770592 -21.701843 48.472435 -48.472435 48.472435l0 0c-26.770592 0 -48.472443 -21.701843 -48.472443 -48.472435z" fill-rule="evenodd"/><path fill="#ffffff" d="m7.195011 95.110275l0 0c0 -12.924332 39.758526 -23.40158 88.80315 -23.40158l0 0c49.044624 0 88.803154 10.477249 88.803154 23.40158l0 0c0 12.924332 -39.75853 23.401573 -88.803154 23.401573l0 0c-49.044624 0 -88.80315 -10.4772415 -88.80315 -23.401573zm3.0220795 0l0 0c0 11.25528 38.405495 20.379494 85.78107 20.379494c47.375572 0 85.781075 -9.124214 85.781075 -20.379494l0 0c0 -11.255287 -38.405502 -20.379501 -85.781075 -20.379501l0 0c-47.375576 0 -85.78107 9.124214 -85.78107 20.379501z" fill-rule="evenodd"/><path fill="#000000" d="m51.29002 84.26833l0 0c0 -15.133469 20.01675 -27.401573 44.70866 -27.401573l0 0c24.69191 0 44.708656 12.268105 44.708656 27.401573l0 0c0 15.133476 -20.016747 27.40158 -44.708656 27.40158l0 0c-24.69191 0 -44.70866 -12.268105 -44.70866 -27.40158z" fill-rule="evenodd"/><path stroke="#000000" stroke-width="1.0" stroke-linejoin="round" stroke-linecap="butt" d="m51.29002 84.26833l0 0c0 -15.133469 20.01675 -27.401573 44.70866 -27.401573l0 0c24.69191 0 44.708656 12.268105 44.708656 27.401573l0 0c0 15.133476 -20.016747 27.40158 -44.708656 27.40158l0 0c-24.69191 0 -44.70866 -12.268105 -44.70866 -27.40158z" fill-rule="evenodd"/><path fill="#ffffff" d="m55.85014 92.92516l5.6692924 -5.6692886l5.6692886 5.6692886l-5.6692886 5.6692963z" fill-rule="evenodd"/><path fill="#ffffff" d="m70.68569 95.101654l3.4803162 -3.4803162l3.4803162 3.4803162l-3.4803162 3.4803162z" fill-rule="evenodd"/><path fill="#ffffff" d="m67.18503 87.31387l2.3779526 -2.3779526l2.3779526 2.3779526l-2.3779526 2.3779526z" fill-rule="evenodd"/></g></svg>