<svg version="1.1" viewBox="0.0 0.0 192.0 192.0" fill="none" stroke="none" stroke-linecap="square" stroke-miterlimit="10" xmlns:xlink="http://www.w3.org/1999/xlink" xmlns="http://www.w3.org/2000/svg"><clipPath id="p.0"><path d="m0 0l192.0 0l0 192.0l-192.0 0l0 -192.0z" clip-rule="nonzero"/></clipPath><g clip-path="url(#p.0)"><path fill="#000000" fill-opacity="0.0" d="m0 0l192.0 0l0 192.0l-192.0 0z" fill-rule="evenodd"/><path fill="#000000" d="m72.39096 105.838234l91.27269 30.039116l18.162704 -16.935493l-121.92126 -40.125984z" fill-rule="evenodd"/><path fill="#000000" d="m89.323326 88.64623l0 0c4.505249 -10.5238495 -7.3750687 -27.452423 -26.535435 -37.811024l0 0c-19.160366 -10.358601 -38.34514 -10.22464 -42.850395 0.2992134l0 0c-4.505252 10.5238495 7.3750668 27.452423 26.535433 37.81102l0 0c19.16037 10.358604 38.34514 10.22464 42.850395 -0.2992096zm-13.816795 -7.4697266c-1.0913544 2.5493011 -11.322624 -0.43708038 -22.852188 -6.670265c-11.52956 -6.233185 -19.991402 -13.352798 -18.900051 -15.902096c1.0913506 -2.5492973 11.322624 0.4370842 22.852188 6.670269l0 0c11.52956 6.233185 19.991405 13.352798 18.900051 15.902092z" fill-rule="evenodd"/><path stroke="#000000" stroke-width="1.0" stroke-linejoin="round" stroke-linecap="butt" d="m89.323326 88.64623l0 0c4.505249 -10.5238495 -7.3750687 -27.452423 -26.535435 -37.811024l0 0c-19.160366 -10.358601 -38.34514 -10.22464 -42.850395 0.2992134l0 0c-4.505252 10.5238495 7.3750668 27.452423 26.535433 37.81102l0 0c19.16037 10.358604 38.34514 10.22464 42.850395 -0.2992096zm-13.816795 -7.4697266c-1.0913544 2.5493011 -11.322624 -0.43708038 -22.852188 -6.670265c-11.52956 -6.233185 -19.991402 -13.352798 -18.900051 -15.902096c1.0913506 -2.5492973 11.322624 0.4370842 22.852188 6.670269l0 0c11.52956 6.233185 19.991405 13.352798 18.900051 15.902092z" fill-rule="evenodd"/><path fill="#ffffff" d="m81.0666 71.88814l0 0c0.7305832 -4.070381 -8.794823 -12.700359 -21.275593 -19.275589c-12.4807625 -6.5752335 -23.190678 -8.605816 -23.921257 -4.5354347l0 0c5.1089554 -0.20324707 14.025959 2.7080154 23.366066 7.6286545c9.340107 4.920643 17.671215 11.096188 21.830784 16.18237z" fill-rule="evenodd"/><path fill="#000000" d="m70.78466 86.160965l91.2727 -30.039116l18.162704 16.935493l-121.921265 40.125984z" fill-rule="evenodd"/><path fill="#000000" d="m87.717026 104.28997l0 0c4.505249 10.5238495 -7.3750687 27.45243 -26.535435 37.811028l0 0c-19.160366 10.358597 -38.34514 10.22464 -42.85039 -0.2992096l0 0c-4.505253 -10.523865 7.375065 -27.45243 26.53543 -37.811028l0 0c19.16037 -10.358604 38.345146 -10.22464 42.850395 0.2992096zm-13.816795 7.4697266c-1.0913467 -2.5493011 -11.322624 0.43708038 -22.852184 6.670265c-11.529564 6.2331924 -19.991405 13.352798 -18.900055 15.9021c1.0913544 2.5493011 11.322628 -0.437088 22.852188 -6.670273l0 0c11.529568 -6.233185 19.991405 -13.352798 18.900051 -15.902092z" fill-rule="evenodd"/><path stroke="#000000" stroke-width="1.0" stroke-linejoin="round" stroke-linecap="butt" d="m87.717026 104.28997l0 0c4.505249 10.5238495 -7.3750687 27.45243 -26.535435 37.811028l0 0c-19.160366 10.358597 -38.34514 10.22464 -42.85039 -0.2992096l0 0c-4.505253 -10.523865 7.375065 -27.45243 26.53543 -37.811028l0 0c19.16037 -10.358604 38.345146 -10.22464 42.850395 0.2992096zm-13.816795 7.4697266c-1.0913467 -2.5493011 -11.322624 0.43708038 -22.852184 6.670265c-11.529564 6.2331924 -19.991405 13.352798 -18.900055 15.9021c1.0913544 2.5493011 11.322628 -0.437088 22.852188 -6.670273l0 0c11.529568 -6.233185 19.991405 -13.352798 18.900051 -15.902092z" fill-rule="evenodd"/><path fill="#ffffff" d="m96.51706 84.74028l1.9634552 -3.875801l62.40381 -20.752342l2.5933685 2.360424z" fill-rule="evenodd"/><path fill="#ffffff" d="m108.45228 102.44502l3.0981445 -2.2869492l62.035713 20.61766l-3.0981445 2.2869568z" fill-rule="evenodd"/><path fill="#ffffff" d="m80.20735 94.874016l0 0c0 -3.1136703 2.5241241 -5.6377945 5.6377945 -5.6377945l0 0c1.4952316 0 2.9292297 0.5939789 3.9865189 1.651268c1.0572968 1.0572968 1.6512756 2.4912872 1.6512756 3.9865265l0 0c0 3.1136703 -2.5241318 5.6377945 -5.6377945 5.6377945l0 0c-3.1136703 0 -5.6377945 -2.5241241 -5.6377945 -5.6377945z" fill-rule="evenodd"/></g></svg>