<svg version="1.1" viewBox="0.0 0.0 783.98687664042 321.9501312335958" fill="none" stroke="none" stroke-linecap="square" stroke-miterlimit="10" xmlns:xlink="http://www.w3.org/1999/xlink" xmlns="http://www.w3.org/2000/svg"><clipPath id="p.0"><path d="m0 0l783.9869 0l0 321.95013l-783.9869 0l0 -321.95013z" clip-rule="nonzero"/></clipPath><g clip-path="url(#p.0)"><path fill="#000000" fill-opacity="0.0" d="m0 0l783.9869 0l0 321.95013l-783.9869 0z" fill-rule="evenodd"/><path fill="#ffffff" d="m520.90027 27.244265l0 0c0 -4.685093 3.7980347 -8.48311 8.483093 -8.48311l58.970825 0c2.249817 0 4.4075317 0.89375496 5.998413 2.4846458c1.5909424 1.5908909 2.4846802 3.7486038 2.4846802 5.9984646l0 33.93142c0 4.6850967 -3.7980347 8.4831085 -8.483093 8.4831085l-58.970825 0c-4.6850586 0 -8.483093 -3.7980118 -8.483093 -8.4831085z" fill-rule="evenodd"/><path stroke="#000000" stroke-width="12.0" stroke-linejoin="round" stroke-linecap="butt" d="m520.90027 27.244265l0 0c0 -4.685093 3.7980347 -8.48311 8.483093 -8.48311l58.970825 0c2.249817 0 4.4075317 0.89375496 5.998413 2.4846458c1.5909424 1.5908909 2.4846802 3.7486038 2.4846802 5.9984646l0 33.93142c0 4.6850967 -3.7980347 8.4831085 -8.483093 8.4831085l-58.970825 0c-4.6850586 0 -8.483093 -3.7980118 -8.483093 -8.4831085z" fill-rule="evenodd"/><path fill="#ffffff" d="m523.88715 247.66946l0 0c0 -4.685089 3.7980347 -8.4831085 8.483093 -8.4831085l58.970825 0c2.249817 0 4.4075317 0.89375305 5.998413 2.4846344c1.5909424 1.5908966 2.4846802 3.7486115 2.4846802 5.998474l0 33.931427c0 4.685089 -3.7980347 8.483093 -8.483093 8.483093l-58.970825 0c-4.6850586 0 -8.483093 -3.7980042 -8.483093 -8.483093z" fill-rule="evenodd"/><path stroke="#000000" stroke-width="12.0" stroke-linejoin="round" stroke-linecap="butt" d="m523.88715 247.66946l0 0c0 -4.685089 3.7980347 -8.4831085 8.483093 -8.4831085l58.970825 0c2.249817 0 4.4075317 0.89375305 5.998413 2.4846344c1.5909424 1.5908966 2.4846802 3.7486115 2.4846802 5.998474l0 33.931427c0 4.685089 -3.7980347 8.483093 -8.483093 8.483093l-58.970825 0c-4.6850586 0 -8.483093 -3.7980042 -8.483093 -8.483093z" fill-rule="evenodd"/><path fill="#ffffff" d="m178.26772 247.66946l0 0c0 -4.685089 3.7980194 -8.4831085 8.4831085 -8.4831085l58.970795 0c2.2498627 0 4.4075623 0.89375305 5.998459 2.4846344c1.5908966 1.5908966 2.4846497 3.7486115 2.4846497 5.998474l0 33.931427c0 4.685089 -3.7980194 8.483093 -8.4831085 8.483093l-58.970795 0c-4.685089 0 -8.4831085 -3.7980042 -8.4831085 -8.483093z" fill-rule="evenodd"/><path stroke="#000000" stroke-width="12.0" stroke-linejoin="round" stroke-linecap="butt" d="m178.26772 247.66946l0 0c0 -4.685089 3.7980194 -8.4831085 8.4831085 -8.4831085l58.970795 0c2.2498627 0 4.4075623 0.89375305 5.998459 2.4846344c1.5908966 1.5908966 2.4846497 3.7486115 2.4846497 5.998474l0 33.931427c0 4.685089 -3.7980194 8.483093 -8.4831085 8.483093l-58.970795 0c-4.685089 0 -8.4831085 -3.7980042 -8.4831085 -8.483093z" fill-rule="evenodd"/><path fill="#ffffff" d="m178.26772 27.244265l0 0c0 -4.685093 3.7980194 -8.48311 8.4831085 -8.48311l58.970795 0c2.2498627 0 4.4075623 0.89375496 5.998459 2.4846458c1.5908966 1.5908909 2.4846497 3.7486038 2.4846497 5.9984646l0 33.93142c0 4.6850967 -3.7980194 8.4831085 -8.4831085 8.4831085l-58.970795 0c-4.685089 0 -8.4831085 -3.7980118 -8.4831085 -8.4831085z" fill-rule="evenodd"/><path stroke="#000000" stroke-width="12.0" stroke-linejoin="round" stroke-linecap="butt" d="m178.26772 27.244265l0 0c0 -4.685093 3.7980194 -8.48311 8.4831085 -8.48311l58.970795 0c2.2498627 0 4.4075623 0.89375496 5.998459 2.4846458c1.5908966 1.5908909 2.4846497 3.7486038 2.4846497 5.9984646l0 33.93142c0 4.6850967 -3.7980194 8.4831085 -8.4831085 8.4831085l-58.970795 0c-4.685089 0 -8.4831085 -3.7980118 -8.4831085 -8.4831085z" fill-rule="evenodd"/><path fill="#000000" d="m129.1451 42.7769l519.75586 0l0 0c68.08942 0 123.286804 49.98533 123.286804 111.645355c0 61.660034 -55.197388 111.64534 -123.286804 111.64534l-519.75586 0l0 0c-68.089424 0 -123.286804 -49.985306 -123.286804 -111.64534c0 -61.660027 55.19738 -111.645355 123.286804 -111.645355z" fill-rule="evenodd"/><path stroke="#000000" stroke-width="1.0" stroke-linejoin="round" stroke-linecap="butt" d="m129.1451 42.7769l519.75586 0l0 0c68.08942 0 123.286804 49.98533 123.286804 111.645355c0 61.660034 -55.197388 111.64534 -123.286804 111.64534l-519.75586 0l0 0c-68.089424 0 -123.286804 -49.985306 -123.286804 -111.64534c0 -61.660027 55.19738 -111.645355 123.286804 -111.645355z" fill-rule="evenodd"/><path fill="#ffffff" d="m178.26772 123.637794l0 0c0 -4.1921463 3.567627 -7.5905533 7.968506 -7.5905533l0 0c2.1133728 0 4.1401978 0.79972076 5.6345825 2.2232208c1.4943848 1.4235077 2.3339233 3.3541946 2.3339233 5.3673325l0 0c0 4.1921463 -3.567627 7.5905533 -7.968506 7.5905533l0 0c-4.400879 0 -7.968506 -3.398407 -7.968506 -7.5905533z" fill-rule="evenodd"/><path stroke="#ffffff" stroke-width="1.0" stroke-linejoin="round" stroke-linecap="butt" d="m178.26772 123.637794l0 0c0 -4.1921463 3.567627 -7.5905533 7.968506 -7.5905533l0 0c2.1133728 0 4.1401978 0.79972076 5.6345825 2.2232208c1.4943848 1.4235077 2.3339233 3.3541946 2.3339233 5.3673325l0 0c0 4.1921463 -3.567627 7.5905533 -7.968506 7.5905533l0 0c-4.400879 0 -7.968506 -3.398407 -7.968506 -7.5905533z" fill-rule="evenodd"/><path fill="#ffffff" d="m235.28084 123.637794l0 0c0 -4.1921463 3.567627 -7.5905533 7.968506 -7.5905533l0 0c2.1133728 0 4.1401978 0.79972076 5.6345825 2.2232208c1.4943848 1.4235077 2.3339233 3.3541946 2.3339233 5.3673325l0 0c0 4.1921463 -3.567627 7.5905533 -7.968506 7.5905533l0 0c-4.400879 0 -7.968506 -3.398407 -7.968506 -7.5905533z" fill-rule="evenodd"/><path stroke="#ffffff" stroke-width="1.0" stroke-linejoin="round" stroke-linecap="butt" d="m235.28084 123.637794l0 0c0 -4.1921463 3.567627 -7.5905533 7.968506 -7.5905533l0 0c2.1133728 0 4.1401978 0.79972076 5.6345825 2.2232208c1.4943848 1.4235077 2.3339233 3.3541946 2.3339233 5.3673325l0 0c0 4.1921463 -3.567627 7.5905533 -7.968506 7.5905533l0 0c-4.400879 0 -7.968506 -3.398407 -7.968506 -7.5905533z" fill-rule="evenodd"/><path fill="#ffffff" d="m178.26772 185.20735l0 0c0 -4.192154 3.567627 -7.590561 7.968506 -7.590561l0 0c2.1133728 0 4.1401978 0.7997284 5.6345825 2.2232208c1.4943848 1.4235077 2.3339233 3.3542023 2.3339233 5.36734l0 0c0 4.1921387 -3.567627 7.5905457 -7.968506 7.5905457l0 0c-4.400879 0 -7.968506 -3.398407 -7.968506 -7.5905457z" fill-rule="evenodd"/><path stroke="#ffffff" stroke-width="1.0" stroke-linejoin="round" stroke-linecap="butt" d="m178.26772 185.20735l0 0c0 -4.192154 3.567627 -7.590561 7.968506 -7.590561l0 0c2.1133728 0 4.1401978 0.7997284 5.6345825 2.2232208c1.4943848 1.4235077 2.3339233 3.3542023 2.3339233 5.36734l0 0c0 4.1921387 -3.567627 7.5905457 -7.968506 7.5905457l0 0c-4.400879 0 -7.968506 -3.398407 -7.968506 -7.5905457z" fill-rule="evenodd"/><path fill="#ffffff" d="m235.28084 185.20735l0 0c0 -4.192154 3.567627 -7.590561 7.968506 -7.590561l0 0c2.1133728 0 4.1401978 0.7997284 5.6345825 2.2232208c1.4943848 1.4235077 2.3339233 3.3542023 2.3339233 5.36734l0 0c0 4.1921387 -3.567627 7.5905457 -7.968506 7.5905457l0 0c-4.400879 0 -7.968506 -3.398407 -7.968506 -7.5905457z" fill-rule="evenodd"/><path stroke="#ffffff" stroke-width="1.0" stroke-linejoin="round" stroke-linecap="butt" d="m235.28084 185.20735l0 0c0 -4.192154 3.567627 -7.590561 7.968506 -7.590561l0 0c2.1133728 0 4.1401978 0.7997284 5.6345825 2.2232208c1.4943848 1.4235077 2.3339233 3.3542023 2.3339233 5.36734l0 0c0 4.1921387 -3.567627 7.5905457 -7.968506 7.5905457l0 0c-4.400879 0 -7.968506 -3.398407 -7.968506 -7.5905457z" fill-rule="evenodd"/><path fill="#ffffff" d="m523.88715 123.637794l0 0c0 -4.1921463 3.567627 -7.5905533 7.968506 -7.5905533l0 0c2.1133423 0 4.1401978 0.79972076 5.6345825 2.2232208c1.4943848 1.4235077 2.3339233 3.3541946 2.3339233 5.3673325l0 0c0 4.1921463 -3.567627 7.5905533 -7.968506 7.5905533l0 0c-4.400879 0 -7.968506 -3.398407 -7.968506 -7.5905533z" fill-rule="evenodd"/><path stroke="#ffffff" stroke-width="1.0" stroke-linejoin="round" stroke-linecap="butt" d="m523.88715 123.637794l0 0c0 -4.1921463 3.567627 -7.5905533 7.968506 -7.5905533l0 0c2.1133423 0 4.1401978 0.79972076 5.6345825 2.2232208c1.4943848 1.4235077 2.3339233 3.3541946 2.3339233 5.3673325l0 0c0 4.1921463 -3.567627 7.5905533 -7.968506 7.5905533l0 0c-4.400879 0 -7.968506 -3.398407 -7.968506 -7.5905533z" fill-rule="evenodd"/><path fill="#ffffff" d="m580.90027 123.637794l0 0c0 -4.1921463 3.567627 -7.5905533 7.968506 -7.5905533l0 0c2.1133423 0 4.1401978 0.79972076 5.6345825 2.2232208c1.4943848 1.4235077 2.3339233 3.3541946 2.3339233 5.3673325l0 0c0 4.1921463 -3.567627 7.5905533 -7.968506 7.5905533l0 0c-4.400879 0 -7.968506 -3.398407 -7.968506 -7.5905533z" fill-rule="evenodd"/><path stroke="#ffffff" stroke-width="1.0" stroke-linejoin="round" stroke-linecap="butt" d="m580.90027 123.637794l0 0c0 -4.1921463 3.567627 -7.5905533 7.968506 -7.5905533l0 0c2.1133423 0 4.1401978 0.79972076 5.6345825 2.2232208c1.4943848 1.4235077 2.3339233 3.3541946 2.3339233 5.3673325l0 0c0 4.1921463 -3.567627 7.5905533 -7.968506 7.5905533l0 0c-4.400879 0 -7.968506 -3.398407 -7.968506 -7.5905533z" fill-rule="evenodd"/><path fill="#ffffff" d="m523.88715 185.20735l0 0c0 -4.192154 3.567627 -7.590561 7.968506 -7.590561l0 0c2.1133423 0 4.1401978 0.7997284 5.6345825 2.2232208c1.4943848 1.4235077 2.3339233 3.3542023 2.3339233 5.36734l0 0c0 4.1921387 -3.567627 7.5905457 -7.968506 7.5905457l0 0c-4.400879 0 -7.968506 -3.398407 -7.968506 -7.5905457z" fill-rule="evenodd"/><path stroke="#ffffff" stroke-width="1.0" stroke-linejoin="round" stroke-linecap="butt" d="m523.88715 185.20735l0 0c0 -4.192154 3.567627 -7.590561 7.968506 -7.590561l0 0c2.1133423 0 4.1401978 0.7997284 5.6345825 2.2232208c1.4943848 1.4235077 2.3339233 3.3542023 2.3339233 5.36734l0 0c0 4.1921387 -3.567627 7.5905457 -7.968506 7.5905457l0 0c-4.400879 0 -7.968506 -3.398407 -7.968506 -7.5905457z" fill-rule="evenodd"/><path fill="#ffffff" d="m580.90027 185.20735l0 0c0 -4.192154 3.567627 -7.590561 7.968506 -7.590561l0 0c2.1133423 0 4.1401978 0.7997284 5.6345825 2.2232208c1.4943848 1.4235077 2.3339233 3.3542023 2.3339233 5.36734l0 0c0 4.1921387 -3.567627 7.5905457 -7.968506 7.5905457l0 0c-4.400879 0 -7.968506 -3.398407 -7.968506 -7.5905457z" fill-rule="evenodd"/><path stroke="#ffffff" stroke-width="1.0" stroke-linejoin="round" stroke-linecap="butt" d="m580.90027 185.20735l0 0c0 -4.192154 3.567627 -7.590561 7.968506 -7.590561l0 0c2.1133423 0 4.1401978 0.7997284 5.6345825 2.2232208c1.4943848 1.4235077 2.3339233 3.3542023 2.3339233 5.36734l0 0c0 4.1921387 -3.567627 7.5905457 -7.968506 7.5905457l0 0c-4.400879 0 -7.968506 -3.398407 -7.968506 -7.5905457z" fill-rule="evenodd"/><path fill="#ffffff" d="m193.77351 245.56197l390.4975 0l0 0c51.15625 0 92.626526 1.970932 92.626526 4.402191c0 2.4312744 -41.470276 4.4022064 -92.626526 4.4022064l-390.4975 0l0 0c-51.15622 0 -92.62653 -1.970932 -92.62653 -4.4022064c0 -2.4312592 41.470314 -4.402191 92.62653 -4.402191z" fill-rule="evenodd"/><path stroke="#000000" stroke-width="1.0" stroke-linejoin="round" stroke-linecap="butt" d="m193.77351 245.56197l390.4975 0l0 0c51.15625 0 92.626526 1.970932 92.626526 4.402191c0 2.4312744 -41.470276 4.4022064 -92.626526 4.4022064l-390.4975 0l0 0c-51.15622 0 -92.62653 -1.970932 -92.62653 -4.4022064c0 -2.4312592 41.470314 -4.402191 92.62653 -4.402191z" fill-rule="evenodd"/></g></svg>