<svg version="1.1" viewBox="0.0 0.0 192.0 192.0" fill="none" stroke="none" stroke-linecap="square" stroke-miterlimit="10" xmlns:xlink="http://www.w3.org/1999/xlink" xmlns="http://www.w3.org/2000/svg"><clipPath id="p.0"><path d="m0 0l192.0 0l0 192.0l-192.0 0l0 -192.0z" clip-rule="nonzero"/></clipPath><g clip-path="url(#p.0)"><path fill="#000000" fill-opacity="0.0" d="m0 0l192.0 0l0 192.0l-192.0 0z" fill-rule="evenodd"/><path fill="#000000" d="m40.41911 69.32246l0 0c0 -5.3298454 4.320694 -9.650539 9.650539 -9.650539l6.7146645 0l0 0c2.5594826 0 5.0141373 1.0167503 6.823963 2.8265762c1.8098297 1.8098259 2.8265762 4.2644844 2.8265762 6.823963l0 52.32097c0 5.3298416 -4.32069 9.650536 -9.650539 9.650536l-6.7146645 0c-5.3298454 0 -9.650539 -4.320694 -9.650539 -9.650536z" fill-rule="evenodd"/><path fill="#000000" d="m4.031496 92.52492l0 0c0 -2.0728378 1.6803703 -3.753212 3.7532125 -3.753212l176.43057 0c0.99542236 0 1.950058 0.3954239 2.6539307 1.099289c0.7038574 0.70386505 1.099289 1.6585083 1.099289 2.653923l0 4.7770386c0 2.0728455 -1.6803741 3.753212 -3.7532196 3.753212l-176.43057 0c-2.0728421 0 -3.7532125 -1.6803665 -3.7532125 -3.753212z" fill-rule="evenodd"/><path fill="#000000" d="m22.70363 75.19096l0 0c0 -3.1488724 2.552662 -5.7015305 5.7015305 -5.7015305l3.9670162 0l0 0c1.5121422 0 2.962349 0.60069275 4.0315933 1.6699371c1.0692444 1.0692444 1.6699371 2.519455 1.6699371 4.0315933l0 39.431587c0 3.1488647 -2.552662 5.7015305 -5.7015305 5.7015305l-3.9670162 0c-3.1488686 0 -5.7015305 -2.5526657 -5.7015305 -5.7015305z" fill-rule="evenodd"/><path fill="#000000" d="m151.44463 122.67492l0 0c0 5.3298416 -4.320694 9.650536 -9.650543 9.650536l-6.7146606 0l0 0c-2.5594788 0 -5.014145 -1.0167389 -6.8239594 -2.8265686c-1.8098297 -1.8098297 -2.8265839 -4.264488 -2.8265839 -6.823967l0 -53.328842c0 -5.3298416 4.320694 -9.650539 9.650543 -9.650539l6.7146606 0c5.3298492 0 9.650543 4.320698 9.650543 9.650539z" fill-rule="evenodd"/><path fill="#000000" d="m168.75505 114.63192l0 0c0 3.1488724 -2.552658 5.7015305 -5.701523 5.7015305l-3.9670258 0l0 0c-1.5121307 0 -2.9623413 -0.60069275 -4.0315857 -1.6699371c-1.0692444 -1.0692444 -1.6699371 -2.519455 -1.6699371 -4.0315933l0 -39.43158c0 -3.1488724 2.552658 -5.7015305 5.701523 -5.7015305l3.9670258 0c3.1488647 0 5.701523 2.552658 5.701523 5.7015305z" fill-rule="evenodd"/><path fill="#000000" fill-opacity="0.0" d="m66.19822 93.34453l59.086617 -0.18897247" fill-rule="evenodd"/><path stroke="#ffffff" stroke-width="2.0" stroke-linejoin="round" stroke-linecap="butt" d="m66.19822 93.34453l59.086617 -0.18897247" fill-rule="evenodd"/><path fill="#000000" fill-opacity="0.0" d="m7.9940286 93.26459l14.708662 0" fill-rule="evenodd"/><path stroke="#ffffff" stroke-width="2.0" stroke-linejoin="round" stroke-linecap="butt" d="m7.9940286 93.26459l14.708662 0" fill-rule="evenodd"/><path fill="#000000" fill-opacity="0.0" d="m168.75505 93.26459l14.708664 0" fill-rule="evenodd"/><path stroke="#ffffff" stroke-width="2.0" stroke-linejoin="round" stroke-linecap="butt" d="m168.75505 93.26459l14.708664 0" fill-rule="evenodd"/><path fill="#000000" fill-opacity="0.0" d="m38.212666 93.26459l2.015751 0" fill-rule="evenodd"/><path stroke="#ffffff" stroke-width="2.0" stroke-linejoin="round" stroke-linecap="butt" d="m38.212666 93.26459l2.015751 0" fill-rule="evenodd"/><path fill="#000000" fill-opacity="0.0" d="m151.44463 93.26459l2.015747 0" fill-rule="evenodd"/><path stroke="#ffffff" stroke-width="2.0" stroke-linejoin="round" stroke-linecap="butt" d="m151.44463 93.26459l2.015747 0" fill-rule="evenodd"/><path fill="#ffffff" d="m44.497334 69.49591l0 0c0 -3.2180328 3.9977112 -5.826771 8.929134 -5.826771c4.931423 0 8.929134 2.608738 8.929134 5.826771l0 0c-5.859745 -0.9711304 -11.998524 -0.9711304 -17.858269 0z" fill-rule="evenodd"/><path fill="#ffffff" d="m26.251322 75.06459l0 0c0 -1.3220062 1.8472652 -2.3936996 4.125984 -2.3936996c2.278719 0 4.1259823 1.0716934 4.1259823 2.3936996l0 0c-2.707676 -0.39894867 -5.5442905 -0.39894867 -8.251966 0z" fill-rule="evenodd"/><path fill="#ffffff" d="m156.9536 75.06459l0 0c0 -1.3220062 1.8472595 -2.3936996 4.1259766 -2.3936996c2.2787323 0 4.125992 1.0716934 4.125992 2.3936996l0 0c-2.707672 -0.39894867 -5.5442963 -0.39894867 -8.251968 0z" fill-rule="evenodd"/><path fill="#ffffff" d="m129.52522 69.49591l0 0c0 -3.2180328 3.9977112 -5.826771 8.929138 -5.826771c4.931427 0 8.929138 2.608738 8.929138 5.826771l0 0c-5.859741 -0.9711304 -11.99852 -0.9711304 -17.858276 0z" fill-rule="evenodd"/></g></svg>